<svg xmlns="http://www.w3.org/2000/svg" viewBox="0 0 423.95 90.71"><defs><style>.cls-1{fill:#fff;}</style></defs><g id="Vrstva_2" data-name="Vrstva 2"><g id="Layer_1" data-name="Layer 1"><rect width="154.03" height="90.71"></rect><path d="M378.59,90.71H204A45.36,45.36,0,0,1,204,0H378.59a45.36,45.36,0,1,1,0,90.71"></path><path class="cls-1" d="M29.64,36.83l7.22-2.39L61.48,67H52Zm-8.1,5.87L49.43,14.88H59L23.69,50.21ZM17.82,14.88h7.51V67H17.82Z"></path><path class="cls-1" d="M69.42,65.09A19.62,19.62,0,0,1,62,57.73,21,21,0,0,1,59.27,47a21.26,21.26,0,0,1,2.67-10.57A19.88,19.88,0,0,1,69.2,29a20.39,20.39,0,0,1,19.94-.23,18.33,18.33,0,0,1,7,6.81,18.74,18.74,0,0,1,2.53,9.67c-.05,1.19-.12,2.28-.22,3.27H63.06V42.4H90.81a8.91,8.91,0,0,0-1.56-4.91A10.86,10.86,0,0,0,85.19,34a13,13,0,0,0-5.91-1.3,13.12,13.12,0,0,0-6.81,1.75,11.78,11.78,0,0,0-4.54,4.91,16,16,0,0,0-1.6,7.25,16.17,16.17,0,0,0,1.75,7.63,12.35,12.35,0,0,0,4.8,5.06,13.71,13.71,0,0,0,6.92,1.75,14.4,14.4,0,0,0,7.77-1.94,8.26,8.26,0,0,0,3.83-5.65l7.3.82a16.83,16.83,0,0,1-6.4,9.93Q87.45,67.77,80,67.77a21.06,21.06,0,0,1-10.6-2.68"></path><path class="cls-1" d="M99.11,27.08h7.74l13.84,34.81L116.3,68Zm3.61,52.82a16.06,16.06,0,0,1-4-2.23l2.53-6.55a14.63,14.63,0,0,0,3.12,1.93,8.16,8.16,0,0,0,3.43.75,5.16,5.16,0,0,0,3.64-1.38,11.74,11.74,0,0,0,2.6-3.83l4.24-9.67,12.87-31.84h7.67L120.46,71a18.5,18.5,0,0,1-5,7.25,11.85,11.85,0,0,1-7.89,2.57,13.29,13.29,0,0,1-4.87-.89"></path><path class="cls-1" d="M189.08,66.17a14.46,14.46,0,0,1-5.92-4.54,14.06,14.06,0,0,1-2.75-6.73l7.74-.67a7.66,7.66,0,0,0,3.12,5.25,10.87,10.87,0,0,0,6.55,1.89,9,9,0,0,0,5.58-1.52,4.85,4.85,0,0,0,2-4.06,4.92,4.92,0,0,0-1.31-3.57,7.74,7.74,0,0,0-3.9-1.93l-8-1.93A17.21,17.21,0,0,1,185,45q-2.6-2.23-2.6-6.77A11.06,11.06,0,0,1,184.24,32a11.87,11.87,0,0,1,5.1-4.2,17.81,17.81,0,0,1,7.44-1.49,17.05,17.05,0,0,1,10.11,2.9,12.8,12.8,0,0,1,5.21,8l-7.29,1a6.55,6.55,0,0,0-2.68-4,9,9,0,0,0-5.28-1.45,9.43,9.43,0,0,0-3.61.63A5.38,5.38,0,0,0,190.9,35a4,4,0,0,0,.52,5.43,9.41,9.41,0,0,0,3.65,1.86l.59.15L204,44.56A14.64,14.64,0,0,1,210.8,48q2.34,2.31,2.34,6.7a12.64,12.64,0,0,1-1.89,6.92,12.23,12.23,0,0,1-5.44,4.57,20,20,0,0,1-8.36,1.6,20.72,20.72,0,0,1-8.37-1.6"></path><path class="cls-1" d="M244,38.09a8.81,8.81,0,0,0-3.46-3.76,9.17,9.17,0,0,0-4.61-1.22,8.89,8.89,0,0,0-4.84,1.41,10.08,10.08,0,0,0-3.61,4.2,15.25,15.25,0,0,0-1.37,6.81l-1.71-8.26a15.29,15.29,0,0,1,2.41-5.62,12,12,0,0,1,4.65-3.9,15,15,0,0,1,6.62-1.41,14.13,14.13,0,0,1,7.59,1.93,12.75,12.75,0,0,1,4.84,5.5A14.3,14.3,0,0,1,256,28.34a16.23,16.23,0,0,1,8.18-2,14.71,14.71,0,0,1,7.7,2A13.07,13.07,0,0,1,277,34a20,20,0,0,1,1.83,8.82V67h-7.14V44.34q0-5.21-2.57-8.22a8.49,8.49,0,0,0-6.81-3,9.79,9.79,0,0,0-4.83,1.22,8.85,8.85,0,0,0-3.57,3.76,13.16,13.16,0,0,0-1.34,6.25V67h-7.22V44.34a13.54,13.54,0,0,0-1.3-6.25M218.9,27.15h6.47V38.39l.75,1.48V67H218.9Z"></path><path class="cls-1" d="M288.9,64.57a10.52,10.52,0,0,1-3.68-8.33,10.41,10.41,0,0,1,2.27-7.07,13.93,13.93,0,0,1,5.84-3.9,63.21,63.21,0,0,1,9.15-2.42l1.34-.15c1.44-.3,2.92-.62,4.46-1a33.48,33.48,0,0,0,3.57-1v5.5A6.53,6.53,0,0,1,309,47.83,33,33,0,0,1,303.74,49l-1.33.23a43,43,0,0,0-5.25,1.37,7.64,7.64,0,0,0-3.2,2,4.44,4.44,0,0,0-1.15,3.12,5.32,5.32,0,0,0,1.82,4.2,7.34,7.34,0,0,0,5,1.6,10.2,10.2,0,0,0,6.07-1.89,12.38,12.38,0,0,0,4.09-5.21,19,19,0,0,0,1.45-7.63L315,48a28.23,28.23,0,0,1-2.12,10.72,14.92,14.92,0,0,1-5.62,6.77,15.71,15.71,0,0,1-8.55,2.3q-6.1,0-9.79-3.2m23.18-9.89-.82-.82v-12A8.88,8.88,0,0,0,310,37.23a9,9,0,0,0-3.46-3.34,11.38,11.38,0,0,0-11.82.93,8.09,8.09,0,0,0-2.72,6l-7.36-1a14.29,14.29,0,0,1,8.48-11.87,20,20,0,0,1,8.4-1.67,19.45,19.45,0,0,1,9,2,15.3,15.3,0,0,1,6.29,5.76,15.84,15.84,0,0,1,2.27,8.41V58.4c.1,1.93.22,3.64.37,5.13A18,18,0,0,0,320,67h-8Z"></path><path class="cls-1" d="M332.71,66.17a14.49,14.49,0,0,1-5.91-4.54,14,14,0,0,1-2.75-6.73l7.73-.67a7.7,7.7,0,0,0,3.13,5.25,10.82,10.82,0,0,0,6.54,1.89A9,9,0,0,0,347,59.85a4.85,4.85,0,0,0,2-4.06,4.92,4.92,0,0,0-1.3-3.57,7.77,7.77,0,0,0-3.91-1.93l-8-1.93A17.16,17.16,0,0,1,328.66,45q-2.61-2.23-2.61-6.77A11,11,0,0,1,327.88,32a11.84,11.84,0,0,1,5.09-4.2,17.81,17.81,0,0,1,7.44-1.49,17.08,17.08,0,0,1,10.12,2.9,12.84,12.84,0,0,1,5.21,8l-7.29,1a6.55,6.55,0,0,0-2.68-4,9,9,0,0,0-5.28-1.45,9.4,9.4,0,0,0-3.61.63A5.32,5.32,0,0,0,334.54,35a3.92,3.92,0,0,0-.82,2.38,3.87,3.87,0,0,0,1.34,3,9.36,9.36,0,0,0,3.64,1.86l.6.15,8.33,2.08A14.74,14.74,0,0,1,354.44,48q2.34,2.31,2.34,6.7a12.56,12.56,0,0,1-1.9,6.92,12.15,12.15,0,0,1-5.43,4.57,20.1,20.1,0,0,1-8.37,1.6,20.79,20.79,0,0,1-8.37-1.6"></path><path class="cls-1" d="M390.88,38.76a10.4,10.4,0,0,0-3.9-4.17,10.93,10.93,0,0,0-5.7-1.48,10.23,10.23,0,0,0-8.29,3.6q-3,3.61-3.24,10.53l-2.82-1.41a24.83,24.83,0,0,1,2-10.46,15.48,15.48,0,0,1,5.65-6.73,15.2,15.2,0,0,1,8.37-2.3,16.62,16.62,0,0,1,8.67,2.19,14.85,14.85,0,0,1,5.73,6.21,20.79,20.79,0,0,1,2,9.52V67h-7.14V44.86a12.88,12.88,0,0,0-1.41-6.1M362.54,14.88h7.21V67h-7.21Z"></path></g></g></svg>